<svg width="25" height="25" viewBox="0 0 25 25" fill="currentColor" xmlns="http://www.w3.org/2000/svg">
<path d="M12.5951 0.0209503C14.2189 0.0209503 15.7762 0.666006 16.9244 1.81421C18.0727 2.96242 18.7177 4.51972 18.7177 6.14353C18.7177 7.76734 18.0727 9.32464 16.9244 10.4728C15.7762 11.6211 14.2189 12.2661 12.5951 12.2661C10.9713 12.2661 9.41402 11.6211 8.26582 10.4728C7.11761 9.32464 6.47255 7.76734 6.47255 6.14353C6.47255 4.51972 7.11761 2.96242 8.26582 1.81421C9.41402 0.666006 10.9713 0.0209503 12.5951 0.0209503ZM12.5951 15.3274C19.3606 15.3274 24.8403 18.0672 24.8403 21.45V24.5113H0.349976V21.45C0.349976 18.0672 5.82968 15.3274 12.5951 15.3274Z" fill="currentColor"/>
</svg>
