<svg width="32" height="32" viewBox="0 0 32 32" fill="none" xmlns="http://www.w3.org/2000/svg">
<path d="M28.1048 0.959656H3.61445C1.93074 0.959656 0.568468 2.33724 0.568468 4.02095L0.553162 31.5725L6.67574 25.45H28.1048C29.7885 25.45 31.1661 24.0724 31.1661 22.3887V4.02095C31.1661 2.33724 29.7885 0.959656 28.1048 0.959656ZM23.5128 19.3274H8.20638C7.36453 19.3274 6.67574 18.6386 6.67574 17.7967C6.67574 16.9549 7.36453 16.2661 8.20638 16.2661H23.5128C24.3547 16.2661 25.0435 16.9549 25.0435 17.7967C25.0435 18.6386 24.3547 19.3274 23.5128 19.3274ZM23.5128 14.7355H8.20638C7.36453 14.7355 6.67574 14.0467 6.67574 13.2048C6.67574 12.363 7.36453 11.6742 8.20638 11.6742H23.5128C24.3547 11.6742 25.0435 12.363 25.0435 13.2048C25.0435 14.0467 24.3547 14.7355 23.5128 14.7355ZM23.5128 10.1435H8.20638C7.36453 10.1435 6.67574 9.45473 6.67574 8.61288C6.67574 7.77102 7.36453 7.08223 8.20638 7.08223H23.5128C24.3547 7.08223 25.0435 7.77102 25.0435 8.61288C25.0435 9.45473 24.3547 10.1435 23.5128 10.1435Z" fill="white"/>
</svg>
