<svg width="409" height="60" viewBox="0 0 409 60" fill="none" xmlns="http://www.w3.org/2000/svg">
<path d="M36.168 0.931999V12.324H13V18.34H34.12V28.964H13V35.108H36.168V46.5H0.2V0.931999H36.168ZM73.782 13.476L62.582 29.476L74.422 46.5H61.11L60.662 45.796C60.4913 45.54 58.934 43.0653 55.99 38.372C55.7767 38.7133 55.3713 39.332 54.774 40.228C54.2193 41.0813 53.7713 41.7853 53.43 42.34C53.0033 43.0227 52.534 43.748 52.022 44.516C51.5527 45.2413 51.2967 45.6467 51.254 45.732L50.742 46.5H37.75L49.654 29.604L38.39 13.476H51.702L52.406 14.564C53.3873 16.0573 54.6673 18.084 56.246 20.644C57.8247 18.084 59.1047 16.0573 60.086 14.564L60.79 13.476H73.782ZM108.235 31.268V33.38H84.0425C84.8105 37.092 87.0078 38.948 90.6345 38.948C93.3652 38.948 95.3065 37.988 96.4585 36.068H107.467C106.571 39.6093 104.587 42.3613 101.515 44.324C98.3998 46.2867 94.7732 47.268 90.6345 47.268C85.3438 47.268 81.0558 45.6893 77.7705 42.532C74.4852 39.3747 72.8425 35.1933 72.8425 29.988C72.8425 24.74 74.4638 20.5587 77.7065 17.444C80.9492 14.2867 85.2158 12.708 90.5065 12.708C95.7972 12.708 100.085 14.3507 103.371 17.636C106.613 20.9213 108.235 25.4653 108.235 31.268ZM90.3785 21.028C86.8798 21.028 84.7678 22.82 84.0425 26.404H96.9065C96.1385 22.82 93.9625 21.028 90.3785 21.028ZM134.581 17.444V13.476H146.037V59.044H134.261V42.98C132.085 45.8387 129.055 47.268 125.173 47.268C120.821 47.268 117.386 45.7107 114.869 42.596C112.351 39.4813 111.093 35.2787 111.093 29.988C111.093 24.6973 112.351 20.4947 114.869 17.38C117.386 14.2653 120.821 12.708 125.173 12.708C129.269 12.708 132.405 14.2867 134.581 17.444ZM122.933 30.244C122.933 35.4493 124.853 38.052 128.693 38.052C132.533 38.052 134.453 35.364 134.453 29.988C134.453 24.612 132.533 21.924 128.693 21.924C124.853 21.924 122.933 24.6973 122.933 30.244ZM172.625 31.78V13.476H184.401V46.5H172.881V42.148C170.236 45.5613 166.801 47.268 162.577 47.268C159.164 47.268 156.412 46.2013 154.321 44.068C152.23 41.892 151.185 38.82 151.185 34.852V13.476H162.961V32.356C162.961 35.6413 164.454 37.284 167.441 37.284C168.934 37.284 170.172 36.8147 171.153 35.876C172.134 34.8947 172.625 33.5293 172.625 31.78ZM200.954 10.148H189.882V0.931999H200.954V10.148ZM201.274 46.5H189.498V13.476H201.274V46.5ZM240.485 31.268V33.38H216.293C217.061 37.092 219.258 38.948 222.885 38.948C225.615 38.948 227.557 37.988 228.709 36.068H239.717C238.821 39.6093 236.837 42.3613 233.765 44.324C230.65 46.2867 227.023 47.268 222.885 47.268C217.594 47.268 213.306 45.6893 210.021 42.532C206.735 39.3747 205.093 35.1933 205.093 29.988C205.093 24.74 206.714 20.5587 209.957 17.444C213.199 14.2867 217.466 12.708 222.757 12.708C228.047 12.708 232.335 14.3507 235.621 17.636C238.863 20.9213 240.485 25.4653 240.485 31.268ZM222.628 21.028C219.13 21.028 217.018 22.82 216.293 26.404H229.157C228.389 22.82 226.213 21.028 222.628 21.028ZM256.399 46.5H244.623V0.931999H256.399V46.5ZM312.763 0.931999V12.324H290.875V18.276H311.355V29.028H290.875V46.5H278.075V0.931999H312.763ZM350.36 31.268V33.38H326.168C326.936 37.092 329.133 38.948 332.76 38.948C335.49 38.948 337.432 37.988 338.584 36.068H349.592C348.696 39.6093 346.712 42.3613 343.64 44.324C340.525 46.2867 336.898 47.268 332.76 47.268C327.469 47.268 323.181 45.6893 319.896 42.532C316.61 39.3747 314.968 35.1933 314.968 29.988C314.968 24.74 316.589 20.5587 319.832 17.444C323.074 14.2867 327.341 12.708 332.632 12.708C337.922 12.708 342.21 14.3507 345.496 17.636C348.738 20.9213 350.36 25.4653 350.36 31.268ZM332.503 21.028C329.005 21.028 326.893 22.82 326.168 26.404H339.032C338.264 22.82 336.088 21.028 332.503 21.028ZM384.782 13.476L373.582 29.476L385.422 46.5H372.11L371.662 45.796C371.491 45.54 369.934 43.0653 366.99 38.372C366.777 38.7133 366.371 39.332 365.774 40.228C365.219 41.0813 364.771 41.7853 364.43 42.34C364.003 43.0227 363.534 43.748 363.022 44.516C362.553 45.2413 362.297 45.6467 362.254 45.732L361.742 46.5H348.75L360.654 29.604L349.39 13.476H362.702L363.406 14.564C364.387 16.0573 365.667 18.084 367.246 20.644C368.825 18.084 370.105 16.0573 371.086 14.564L371.79 13.476H384.782ZM408.734 13.476V21.796H402.526V34.98C402.526 36.2173 402.782 37.028 403.294 37.412C403.848 37.7533 404.851 37.924 406.302 37.924H408.734V46.5C406.728 46.7133 405.064 46.82 403.742 46.82C399.091 46.82 395.763 46.0093 393.758 44.388C391.752 42.7667 390.75 40.1 390.75 36.388V21.796H386.078V13.476H390.75V3.492H402.526V13.476H408.734Z" fill="white"/>
</svg>
