<svg width="28" height="29" viewBox="0 0 28 29" fill="none" xmlns="http://www.w3.org/2000/svg">
<path d="M7.82089 21.9193C8.25457 21.9193 8.61835 21.7724 8.91224 21.4785C9.2051 21.1856 9.35153 20.8224 9.35153 20.3887C9.35153 19.955 9.2051 19.5912 8.91224 19.2973C8.61835 19.0045 8.25457 18.858 7.82089 18.858C7.3872 18.858 7.02342 19.0045 6.72954 19.2973C6.43667 19.5912 6.29024 19.955 6.29024 20.3887C6.29024 20.8224 6.43667 21.1856 6.72954 21.4785C7.02342 21.7724 7.3872 21.9193 7.82089 21.9193ZM7.82089 15.7968C8.25457 15.7968 8.61835 15.6498 8.91224 15.3559C9.2051 15.0631 9.35153 14.6998 9.35153 14.2661C9.35153 13.8324 9.2051 13.4686 8.91224 13.1748C8.61835 12.8819 8.25457 12.7355 7.82089 12.7355C7.3872 12.7355 7.02342 12.8819 6.72954 13.1748C6.43667 13.4686 6.29024 13.8324 6.29024 14.2661C6.29024 14.6998 6.43667 15.0631 6.72954 15.3559C7.02342 15.6498 7.3872 15.7968 7.82089 15.7968ZM7.82089 9.67418C8.25457 9.67418 8.61835 9.52724 8.91224 9.23335C9.2051 8.94049 9.35153 8.57722 9.35153 8.14353C9.35153 7.70985 9.2051 7.34607 8.91224 7.05218C8.61835 6.75932 8.25457 6.61289 7.82089 6.61289C7.3872 6.61289 7.02342 6.75932 6.72954 7.05218C6.43667 7.34607 6.29024 7.70985 6.29024 8.14353C6.29024 8.57722 6.43667 8.94049 6.72954 9.23335C7.02342 9.52724 7.3872 9.67418 7.82089 9.67418ZM12.4128 21.9193H21.5967V18.858H12.4128V21.9193ZM12.4128 15.7968H21.5967V12.7355H12.4128V15.7968ZM12.4128 9.67418H21.5967V6.61289H12.4128V9.67418ZM3.22895 28.0419C2.3871 28.0419 1.66616 27.7424 1.06615 27.1434C0.467159 26.5434 0.167664 25.8225 0.167664 24.9806V3.5516C0.167664 2.70975 0.467159 1.98881 1.06615 1.3888C1.66616 0.789807 2.3871 0.490311 3.22895 0.490311H24.658C25.4998 0.490311 26.2208 0.789807 26.8208 1.3888C27.4198 1.98881 27.7193 2.70975 27.7193 3.5516V24.9806C27.7193 25.8225 27.4198 26.5434 26.8208 27.1434C26.2208 27.7424 25.4998 28.0419 24.658 28.0419H3.22895ZM3.22895 24.9806H24.658V3.5516H3.22895V24.9806ZM3.22895 3.5516V24.9806V3.5516Z" fill="white"/>
</svg>
